<?xml version="1.0" encoding="UTF-8"?>
<svg xmlns="http://www.w3.org/2000/svg" xmlns:xlink="http://www.w3.org/1999/xlink" width="3750" height="3750" viewBox="0 0 3750 3750">
<rect x="-375" y="-375" width="4500" height="4500" fill="rgb(100%, 100%, 100%)" fill-opacity="1"/>
<path fill-rule="nonzero" fill="rgb(0%, 0%, 0%)" fill-opacity="1" d="M 2134.609375 375.058594 C 2127.960938 374.480469 2111.191406 377.738281 2083.210938 413.179688 C 2045.910156 460.429688 1951.410156 582.269531 1938.980469 676.769531 C 1926.539062 771.269531 1901.660156 1005.058594 1869.328125 1074.691406 C 1845.328125 1126.378906 1780.230469 1227.339844 1727.929688 1256.628906 C 1723.910156 1232.269531 1721.878906 1205.640625 1722.640625 1176.628906 C 1722.640625 1176.628906 1700.261719 1184.109375 1695.289062 1248.769531 C 1694.648438 1253.488281 1694.648438 1258.640625 1694.648438 1263.988281 C 1689.488281 1262.808594 1684.730469 1260.339844 1680.378906 1256.21875 C 1630.648438 1208.96875 1633.128906 1032.390625 1625.671875 1017.460938 C 1618.210938 1002.539062 1595.820312 1141.820312 1605.761719 1201.5 C 1615.710938 1261.191406 1672.929688 1365.628906 1643.089844 1400.449219 C 1613.25 1435.269531 1501.328125 1554.640625 1421.75 1539.710938 C 1342.179688 1524.789062 1314.820312 1437.738281 1309.839844 1383.03125 C 1309.839844 1383.03125 1252.621094 1440.25 1304.808594 1562.109375 C 1304.808594 1562.109375 1078.53125 1432.789062 1063.609375 1308.441406 C 1048.691406 1184.109375 1113.328125 1161.710938 1103.390625 1146.789062 C 1093.441406 1131.871094 991.484375 1181.628906 986.507812 1328.351562 C 981.542969 1475.070312 1078.539062 1544.699219 1113.351562 1584.488281 C 1148.171875 1624.28125 1262.558594 1678.980469 1262.558594 1678.980469 C 1262.558594 1678.980469 1227.75 1758.550781 1222.78125 1775.949219 C 1222.78125 1775.949219 1175.511719 1753.578125 1100.898438 1795.859375 C 1026.300781 1838.128906 939.285156 1902.78125 882.085938 1915.21875 C 824.886719 1927.648438 658.25 2002.261719 645.8125 2052 C 633.378906 2101.738281 603.546875 2094.289062 663.238281 2149 C 722.921875 2203.710938 797.519531 2236.039062 837.304688 2233.550781 C 877.097656 2231.070312 867.15625 2216.121094 974.089844 2255.910156 C 1081.019531 2295.699219 1043.710938 2357.890625 1041.21875 2410.109375 C 1038.730469 2462.339844 1041.21875 2551.859375 1041.21875 2551.859375 C 1041.21875 2551.859375 1043.699219 2497.140625 1071.058594 2477.25 C 1071.058594 2477.25 1061.109375 2549.359375 1071.058594 2594.121094 L 1128.25 2526.988281 C 1128.25 2526.988281 1148.148438 2698.601562 1130.738281 2765.742188 C 1130.738281 2765.742188 1195.410156 2758.273438 1207.839844 2688.640625 C 1207.839844 2688.640625 1220.289062 2778.164062 1195.421875 2832.875 C 1195.421875 2832.875 1232.710938 2812.96875 1232.710938 2763.226562 C 1232.710938 2763.226562 1240.179688 2875.152344 1260.070312 2947.269531 C 1279.960938 3019.386719 1297.359375 3098.953125 1297.359375 3098.953125 L 1304.808594 2984.5625 C 1304.808594 2984.5625 1332.179688 3074.105469 1357.050781 3111.40625 C 1381.921875 3148.710938 1409.269531 3193.472656 1409.269531 3193.472656 C 1409.269531 3193.472656 1416.730469 3106.421875 1411.75 3066.628906 C 1411.75 3066.628906 1441.601562 3111.402344 1441.601562 3171.085938 C 1441.601562 3230.769531 1478.921875 3270.574219 1478.921875 3270.574219 L 1488.859375 3190.992188 L 1506.269531 3273.058594 C 1506.269531 3273.058594 1580.859375 3233.253906 1610.699219 3173.570312 C 1610.699219 3173.570312 1633.089844 3188.488281 1605.730469 3230.769531 C 1605.730469 3230.769531 1705.21875 3233.25 1710.191406 3148.699219 C 1710.191406 3148.699219 1715.160156 3208.402344 1715.160156 3245.703125 C 1715.160156 3283.003906 1792.261719 3375 1792.261719 3375 L 1777.671875 3263.378906 C 1779.519531 3274.285156 1793.160156 3317.4375 1894.199219 3362.582031 C 1894.199219 3362.582031 1871.71875 3131.125 1927.980469 3008.03125 C 1927.980469 3008.03125 1935.03125 3092.4375 1942.070312 3162.773438 C 1942.070312 3162.773438 1980.71875 3032.640625 2022.929688 2962.300781 C 2065.128906 2891.960938 2089.769531 2782.941406 2089.769531 2782.941406 C 2089.769531 2782.941406 2096.808594 2877.902344 2065.148438 2944.722656 C 2065.148438 2944.722656 2167.140625 2765.367188 2163.621094 2642.269531 C 2163.621094 2642.269531 2198.789062 2659.859375 2188.238281 2747.78125 C 2188.238281 2747.78125 2276.160156 2600.078125 2188.238281 2469.949219 C 2188.238281 2469.949219 2276.140625 2494.558594 2290.210938 2554.351562 C 2290.210938 2554.351562 2378.5 2431.269531 2211.261719 2396.101562 C 2211.261719 2396.101562 2240.980469 2364.441406 2346.488281 2415.429688 C 2346.488281 2415.429688 2270.878906 2325.730469 2190 2325.730469 C 2109.109375 2325.730469 2029.980469 2325.761719 1952.609375 2258.941406 C 1875.230469 2192.121094 1702.890625 1889.640625 1702.890625 1889.640625 C 1702.890625 1889.640625 1743.339844 1814.039062 1752.128906 1773.601562 C 1760.921875 1733.148438 1760.921875 1645.21875 1760.921875 1645.21875 C 1760.921875 1645.21875 1856.929688 1624.28125 1926.558594 1529.78125 C 1996.191406 1435.28125 2100.621094 1318.390625 2274.699219 1253.730469 C 2448.78125 1189.078125 2548.238281 1136.851562 2682.53125 1169.179688 C 2816.820312 1201.511719 2896.421875 1208.960938 2941.191406 1208.960938 C 2985.949219 1208.960938 3100.328125 1181.601562 3122.710938 1154.25 C 3122.710938 1154.25 2970.761719 1149.351562 2909.21875 1147.589844 C 2847.660156 1145.828125 2675.320312 1122.96875 2678.828125 1066.699219 C 2682.339844 1010.429688 2874.019531 838.101562 2874.019531 774.789062 C 2874.019531 711.488281 2889.851562 560.261719 2881.058594 572.570312 C 2872.269531 584.878906 2830.078125 720.269531 2796.660156 760.71875 C 2763.261719 801.160156 2592.671875 1013.921875 2517.058594 1056.121094 C 2441.441406 1098.328125 2253.640625 1186.269531 2211.261719 1158.128906 C 2194.808594 1147.199219 2200.269531 1070.519531 2216.359375 975.230469 C 2343.140625 937.648438 2497.96875 890.308594 2540.808594 845.871094 C 2607.960938 776.238281 2709.921875 569.859375 2704.949219 517.628906 C 2704.949219 517.628906 2545.808594 793.671875 2433.910156 828.488281 C 2387.75 842.851562 2309 872.378906 2230.851562 898.011719 C 2258.328125 763.980469 2299.308594 618.460938 2328.941406 567.28125 C 2386.96875 467.050781 2283.449219 607.160156 2247.378906 654.410156 C 2227.71875 680.160156 2189.351562 802.691406 2153.238281 921.828125 C 2072.839844 944.390625 2006.230469 954.691406 1996.199219 927.941406 C 1973.820312 868.261719 2008.628906 602.179688 2028.53125 577.308594 C 2048.421875 552.441406 2137.949219 375.878906 2137.949219 375.878906 C 2137.949219 375.878906 2136.871094 375.25 2134.640625 375.058594 Z M 2129.070312 1001.480469 C 2108.820312 1068.460938 2090.511719 1128.109375 2080.71875 1151.761719 C 2050.890625 1223.878906 1899.171875 1455.160156 1864.359375 1455.160156 C 1843.480469 1455.160156 1795 1422.691406 1760.511719 1356.148438 C 1768.390625 1345.140625 1775.851562 1334.148438 1782.289062 1323.351562 C 1859.390625 1194.039062 1976.269531 1062.25 2053.371094 1027.429688 C 2068.789062 1020.460938 2096.679688 1011.429688 2129.070312 1001.480469 Z M 1718.210938 1409.429688 C 1732.109375 1452.828125 1752.761719 1497.519531 1782.289062 1537.230469 C 1782.289062 1537.230469 1741.570312 1604.78125 1511.210938 1604.78125 C 1511.210938 1604.78125 1629.628906 1511.789062 1718.210938 1409.429688 Z M 1617.929688 1678.371094 C 1625.800781 1678.390625 1629.019531 1680.300781 1624.390625 1685.191406 C 1603.25 1707.570312 1580.859375 1747.359375 1580.859375 1747.359375 L 1502.550781 1702.609375 C 1502.550781 1702.609375 1589.828125 1678.328125 1617.929688 1678.371094 Z M 1617.929688 1678.371094 "/>
</svg>
